# xmcd CD database file
#
# Track frame offsets:
#	150
#	14247
#	27720
#	41089
#	56949
#	71859
#	89154
#	102601
#	115866
#	127259
#	140940
#	156129
#	170096
#	182737
#	195430
#	207993
#	221914
#	237701
#	250342
#	272681
#
# Disc length: 3816 seconds
#
# Revision: 0
# Processed by: cddbd v1.5.1PL0 Copyright (c) Steve Scherf et al.
# Submitted via: CDex 1.51
#
DISCID=5a0ee614
DTITLE=Charlie Parker - The Jazz Biography
DYEAR=1900
DGENRE=Jazz
TTITLE0=Bird of Paradise
TTITLE1=Dexterity
TTITLE2=Drifting on a Reed
TTITLE3=How Deep is the Ocean
TTITLE4=Ornithology
TTITLE5=Out of Nowhere
TTITLE6=Quasimodo
TTITLE7=Relaxing at Camarillo
TTITLE8=The Hymn
TTITLE9=Night in Tunisia
TTITLE10=Embraceable You
TTITLE11=Klact-oveeseds-tene
TTITLE12=Bird's Nest
TTITLE13=Bongo Bop
TTITLE14=Don't Blame Me
TTITLE15=Dewey Square
TTITLE16=Autumn in New York
TTITLE17=Blues For Alice
TTITLE18=I Get a Kick Out of You
TTITLE19=Now's For Time
EXTD=
EXTT0=
EXTT1=
EXTT2=
EXTT3=
EXTT4=
EXTT5=
EXTT6=
EXTT7=
EXTT8=
EXTT9=
EXTT10=
EXTT11=
EXTT12=
EXTT13=
EXTT14=
EXTT15=
EXTT16=
EXTT17=
EXTT18=
EXTT19=
PLAYORDER=
